<?xml version="1.0" encoding="us-ascii" standalone="no"?><svg xmlns="http://www.w3.org/2000/svg" xmlns:xlink="http://www.w3.org/1999/xlink" contentStyleType="text/css" height="469px" preserveAspectRatio="none" style="width:155px;height:469px;background:#FFFFFF;" version="1.1" viewBox="0 0 155 469" width="155px" zoomAndPan="magnify"><defs/><g><!--class FUENTE DE LUZ--><g id="elem_FUENTE DE LUZ"><rect codeLine="3" fill="#F1F1F1" height="48" id="FUENTE DE LUZ" rx="2.5" ry="2.5" style="stroke:#181818;stroke-width:0.5;" width="141" x="7" y="7"/><ellipse cx="22" cy="23" fill="#ADD1B2" rx="11" ry="11" style="stroke:#181818;stroke-width:1.0;"/><path d="M24.3438,18.6719 C23.4063,18.2344 22.8125,18.0938 21.9375,18.0938 C19.3125,18.0938 17.3125,20.1719 17.3125,22.8906 L17.3125,24.0156 C17.3125,26.5938 19.4219,28.4844 22.3125,28.4844 C23.5313,28.4844 24.6875,28.1875 25.4375,27.6406 C26.0156,27.2344 26.3438,26.7813 26.3438,26.3906 C26.3438,25.9375 25.9531,25.5469 25.4844,25.5469 C25.2656,25.5469 25.0625,25.625 24.875,25.8125 C24.4219,26.2969 24.4219,26.2969 24.2344,26.3906 C23.8125,26.6563 23.125,26.7813 22.3594,26.7813 C20.3125,26.7813 19.0156,25.6875 19.0156,23.9844 L19.0156,22.8906 C19.0156,21.1094 20.2656,19.7969 22,19.7969 C22.5781,19.7969 23.1875,19.9531 23.6563,20.2031 C24.1406,20.4844 24.3125,20.7031 24.4063,21.1094 C24.4688,21.5156 24.5,21.6406 24.6406,21.7656 C24.7813,21.9063 25.0156,22.0156 25.2344,22.0156 C25.5,22.0156 25.7656,21.875 25.9375,21.6563 C26.0469,21.5 26.0781,21.3125 26.0781,20.8906 L26.0781,19.4688 C26.0781,19.0313 26.0625,18.9063 25.9688,18.75 C25.8125,18.4844 25.5313,18.3438 25.2344,18.3438 C24.9375,18.3438 24.7344,18.4375 24.5156,18.75 L24.3438,18.6719 Z " fill="#000000"/><text fill="#000000" font-family="Arial" font-size="14" lengthAdjust="spacing" textLength="109" x="36" y="27.8467">FUENTE DE LUZ</text><line style="stroke:#181818;stroke-width:0.5;" x1="8" x2="147" y1="39" y2="39"/><line style="stroke:#181818;stroke-width:0.5;" x1="8" x2="147" y1="47" y2="47"/></g><!--class MATERIA--><g id="elem_MATERIA"><rect codeLine="7" fill="#F1F1F1" height="64.2969" id="MATERIA" rx="2.5" ry="2.5" style="stroke:#181818;stroke-width:0.5;" width="129" x="13" y="132"/><ellipse cx="42.85" cy="148" fill="#ADD1B2" rx="11" ry="11" style="stroke:#181818;stroke-width:1.0;"/><path d="M45.1938,143.6719 C44.2563,143.2344 43.6625,143.0938 42.7875,143.0938 C40.1625,143.0938 38.1625,145.1719 38.1625,147.8906 L38.1625,149.0156 C38.1625,151.5938 40.2719,153.4844 43.1625,153.4844 C44.3813,153.4844 45.5375,153.1875 46.2875,152.6406 C46.8656,152.2344 47.1938,151.7813 47.1938,151.3906 C47.1938,150.9375 46.8031,150.5469 46.3344,150.5469 C46.1156,150.5469 45.9125,150.625 45.725,150.8125 C45.2719,151.2969 45.2719,151.2969 45.0844,151.3906 C44.6625,151.6563 43.975,151.7813 43.2094,151.7813 C41.1625,151.7813 39.8656,150.6875 39.8656,148.9844 L39.8656,147.8906 C39.8656,146.1094 41.1156,144.7969 42.85,144.7969 C43.4281,144.7969 44.0375,144.9531 44.5063,145.2031 C44.9906,145.4844 45.1625,145.7031 45.2563,146.1094 C45.3188,146.5156 45.35,146.6406 45.4906,146.7656 C45.6313,146.9063 45.8656,147.0156 46.0844,147.0156 C46.35,147.0156 46.6156,146.875 46.7875,146.6563 C46.8969,146.5 46.9281,146.3125 46.9281,145.8906 L46.9281,144.4688 C46.9281,144.0313 46.9125,143.9063 46.8188,143.75 C46.6625,143.4844 46.3813,143.3438 46.0844,143.3438 C45.7875,143.3438 45.5844,143.4375 45.3656,143.75 L45.1938,143.6719 Z " fill="#000000"/><text fill="#000000" font-family="Arial" font-size="14" lengthAdjust="spacing" textLength="64" x="60.15" y="152.8467">MATERIA</text><line style="stroke:#181818;stroke-width:0.5;" x1="14" x2="141" y1="164" y2="164"/><text fill="#000000" font-family="Arial" font-size="14" lengthAdjust="spacing" textLength="117" x="19" y="180.9951">no transparente</text><line style="stroke:#181818;stroke-width:0.5;" x1="14" x2="141" y1="188.2969" y2="188.2969"/></g><!--class SUPERFICIE--><g id="elem_SUPERFICIE"><rect codeLine="11" fill="#F1F1F1" height="64.2969" id="SUPERFICIE" rx="2.5" ry="2.5" style="stroke:#181818;stroke-width:0.5;" width="129" x="13" y="273"/><ellipse cx="35.2" cy="289" fill="#ADD1B2" rx="11" ry="11" style="stroke:#181818;stroke-width:1.0;"/><path d="M37.5438,284.6719 C36.6063,284.2344 36.0125,284.0938 35.1375,284.0938 C32.5125,284.0938 30.5125,286.1719 30.5125,288.8906 L30.5125,290.0156 C30.5125,292.5938 32.6219,294.4844 35.5125,294.4844 C36.7313,294.4844 37.8875,294.1875 38.6375,293.6406 C39.2156,293.2344 39.5438,292.7813 39.5438,292.3906 C39.5438,291.9375 39.1531,291.5469 38.6844,291.5469 C38.4656,291.5469 38.2625,291.625 38.075,291.8125 C37.6219,292.2969 37.6219,292.2969 37.4344,292.3906 C37.0125,292.6563 36.325,292.7813 35.5594,292.7813 C33.5125,292.7813 32.2156,291.6875 32.2156,289.9844 L32.2156,288.8906 C32.2156,287.1094 33.4656,285.7969 35.2,285.7969 C35.7781,285.7969 36.3875,285.9531 36.8563,286.2031 C37.3406,286.4844 37.5125,286.7031 37.6063,287.1094 C37.6688,287.5156 37.7,287.6406 37.8406,287.7656 C37.9813,287.9063 38.2156,288.0156 38.4344,288.0156 C38.7,288.0156 38.9656,287.875 39.1375,287.6563 C39.2469,287.5 39.2781,287.3125 39.2781,286.8906 L39.2781,285.4688 C39.2781,285.0313 39.2625,284.9063 39.1688,284.75 C39.0125,284.4844 38.7313,284.3438 38.4344,284.3438 C38.1375,284.3438 37.9344,284.4375 37.7156,284.75 L37.5438,284.6719 Z " fill="#000000"/><text fill="#000000" font-family="Arial" font-size="14" lengthAdjust="spacing" textLength="81" x="50.8" y="293.8467">SUPERFICIE</text><line style="stroke:#181818;stroke-width:0.5;" x1="14" x2="141" y1="305" y2="305"/><text fill="#000000" font-family="Arial" font-size="14" lengthAdjust="spacing" textLength="117" x="19" y="321.9951">no transparente</text><line style="stroke:#181818;stroke-width:0.5;" x1="14" x2="141" y1="329.2969" y2="329.2969"/></g><!--class SOMBRA--><g id="elem_SOMBRA"><rect codeLine="15" fill="#F1F1F1" height="48" id="SOMBRA" rx="2.5" ry="2.5" style="stroke:#181818;stroke-width:0.5;" width="94" x="30.5" y="414"/><ellipse cx="45.5" cy="430" fill="#ADD1B2" rx="11" ry="11" style="stroke:#181818;stroke-width:1.0;"/><path d="M47.8438,425.6719 C46.9063,425.2344 46.3125,425.0938 45.4375,425.0938 C42.8125,425.0938 40.8125,427.1719 40.8125,429.8906 L40.8125,431.0156 C40.8125,433.5938 42.9219,435.4844 45.8125,435.4844 C47.0313,435.4844 48.1875,435.1875 48.9375,434.6406 C49.5156,434.2344 49.8438,433.7813 49.8438,433.3906 C49.8438,432.9375 49.4531,432.5469 48.9844,432.5469 C48.7656,432.5469 48.5625,432.625 48.375,432.8125 C47.9219,433.2969 47.9219,433.2969 47.7344,433.3906 C47.3125,433.6563 46.625,433.7813 45.8594,433.7813 C43.8125,433.7813 42.5156,432.6875 42.5156,430.9844 L42.5156,429.8906 C42.5156,428.1094 43.7656,426.7969 45.5,426.7969 C46.0781,426.7969 46.6875,426.9531 47.1563,427.2031 C47.6406,427.4844 47.8125,427.7031 47.9063,428.1094 C47.9688,428.5156 48,428.6406 48.1406,428.7656 C48.2813,428.9063 48.5156,429.0156 48.7344,429.0156 C49,429.0156 49.2656,428.875 49.4375,428.6563 C49.5469,428.5 49.5781,428.3125 49.5781,427.8906 L49.5781,426.4688 C49.5781,426.0313 49.5625,425.9063 49.4688,425.75 C49.3125,425.4844 49.0313,425.3438 48.7344,425.3438 C48.4375,425.3438 48.2344,425.4375 48.0156,425.75 L47.8438,425.6719 Z " fill="#000000"/><text fill="#000000" font-family="Arial" font-size="14" lengthAdjust="spacing" textLength="62" x="59.5" y="434.8467">SOMBRA</text><line style="stroke:#181818;stroke-width:0.5;" x1="31.5" x2="123.5" y1="446" y2="446"/><line style="stroke:#181818;stroke-width:0.5;" x1="31.5" x2="123.5" y1="454" y2="454"/></g><!--link FUENTE DE LUZ to MATERIA--><g id="link_FUENTE DE LUZ_MATERIA"><path codeLine="19" d="M77.5,55.119 C77.5,76.42 77.5,108.201 77.5,131.756 " fill="none" id="FUENTE DE LUZ-MATERIA" style="stroke:#181818;stroke-width:1.0;"/><text fill="#000000" font-family="Arial" font-size="13" lengthAdjust="spacing" textLength="54" x="78.5" y="98.0669">Alumbra</text></g><!--link MATERIA to SUPERFICIE--><g id="link_MATERIA_SUPERFICIE"><path codeLine="20" d="M77.5,196.194 C77.5,219.087 77.5,250.042 77.5,272.91 " fill="none" id="MATERIA-SUPERFICIE" style="stroke:#181818;stroke-width:1.0;"/><text fill="#000000" font-family="Arial" font-size="13" lengthAdjust="spacing" textLength="60" x="78.5" y="239.0669">Oscurece</text></g><!--link SUPERFICIE to SOMBRA--><g id="link_SUPERFICIE_SOMBRA"><path codeLine="21" d="M77.5,337.045 C77.5,360.651 77.5,392.6046 77.5,413.9659 " fill="none" id="SUPERFICIE-SOMBRA" style="stroke:#181818;stroke-width:1.0;"/><text fill="#000000" font-family="Arial" font-size="13" lengthAdjust="spacing" textLength="47" x="78.5" y="380.0669">Genera</text></g><!--SRC=[VOsn3e8m54NtViLBTtx0hM9hI0GCqiNjMPy9iIscBPFntmM28JguddjoJxnt_e417LpfXeDDglUfGaSWGeUMCMCnHk1AowgLi9Dmq6SEJyPUdwqKhMmACJBmFQI0FewFv1EjpaaVPQEAl93_jRhSDc9v_src6V2bnM43mWxk4f2jR1BMqEJKqGo13B4lFdjpQNBsv2dW6m00]--></g></svg>