<?xml version="1.0" encoding="us-ascii" standalone="no"?><svg xmlns="http://www.w3.org/2000/svg" xmlns:xlink="http://www.w3.org/1999/xlink" contentStyleType="text/css" height="312px" preserveAspectRatio="none" style="width:200px;height:312px;background:#FFFFFF;" version="1.1" viewBox="0 0 200 312" width="200px" zoomAndPan="magnify"><defs/><g><!--class Luz--><g id="elem_Luz"><rect codeLine="4" fill="#F1F1F1" height="48" id="Luz" rx="2.5" ry="2.5" style="stroke:#181818;stroke-width:0.5;" width="56" x="95" y="7"/><ellipse cx="110" cy="23" fill="#ADD1B2" rx="11" ry="11" style="stroke:#181818;stroke-width:1.0;"/><path d="M112.3438,18.6719 C111.4063,18.2344 110.8125,18.0938 109.9375,18.0938 C107.3125,18.0938 105.3125,20.1719 105.3125,22.8906 L105.3125,24.0156 C105.3125,26.5938 107.4219,28.4844 110.3125,28.4844 C111.5313,28.4844 112.6875,28.1875 113.4375,27.6406 C114.0156,27.2344 114.3438,26.7813 114.3438,26.3906 C114.3438,25.9375 113.9531,25.5469 113.4844,25.5469 C113.2656,25.5469 113.0625,25.625 112.875,25.8125 C112.4219,26.2969 112.4219,26.2969 112.2344,26.3906 C111.8125,26.6563 111.125,26.7813 110.3594,26.7813 C108.3125,26.7813 107.0156,25.6875 107.0156,23.9844 L107.0156,22.8906 C107.0156,21.1094 108.2656,19.7969 110,19.7969 C110.5781,19.7969 111.1875,19.9531 111.6563,20.2031 C112.1406,20.4844 112.3125,20.7031 112.4063,21.1094 C112.4688,21.5156 112.5,21.6406 112.6406,21.7656 C112.7813,21.9063 113.0156,22.0156 113.2344,22.0156 C113.5,22.0156 113.7656,21.875 113.9375,21.6563 C114.0469,21.5 114.0781,21.3125 114.0781,20.8906 L114.0781,19.4688 C114.0781,19.0313 114.0625,18.9063 113.9688,18.75 C113.8125,18.4844 113.5313,18.3438 113.2344,18.3438 C112.9375,18.3438 112.7344,18.4375 112.5156,18.75 L112.3438,18.6719 Z " fill="#000000"/><text fill="#000000" font-family="sans-serif" font-size="14" lengthAdjust="spacing" textLength="24" x="124" y="27.8467">Luz</text><line style="stroke:#181818;stroke-width:0.5;" x1="96" x2="150" y1="39" y2="39"/><line style="stroke:#181818;stroke-width:0.5;" x1="96" x2="150" y1="47" y2="47"/></g><!--class Objeto--><g id="elem_Objeto"><rect codeLine="5" fill="#F1F1F1" height="48" id="Objeto" rx="2.5" ry="2.5" style="stroke:#181818;stroke-width:0.5;" width="82" x="7" y="132"/><ellipse cx="22" cy="148" fill="#ADD1B2" rx="11" ry="11" style="stroke:#181818;stroke-width:1.0;"/><path d="M24.3438,143.6719 C23.4063,143.2344 22.8125,143.0938 21.9375,143.0938 C19.3125,143.0938 17.3125,145.1719 17.3125,147.8906 L17.3125,149.0156 C17.3125,151.5938 19.4219,153.4844 22.3125,153.4844 C23.5313,153.4844 24.6875,153.1875 25.4375,152.6406 C26.0156,152.2344 26.3438,151.7813 26.3438,151.3906 C26.3438,150.9375 25.9531,150.5469 25.4844,150.5469 C25.2656,150.5469 25.0625,150.625 24.875,150.8125 C24.4219,151.2969 24.4219,151.2969 24.2344,151.3906 C23.8125,151.6563 23.125,151.7813 22.3594,151.7813 C20.3125,151.7813 19.0156,150.6875 19.0156,148.9844 L19.0156,147.8906 C19.0156,146.1094 20.2656,144.7969 22,144.7969 C22.5781,144.7969 23.1875,144.9531 23.6563,145.2031 C24.1406,145.4844 24.3125,145.7031 24.4063,146.1094 C24.4688,146.5156 24.5,146.6406 24.6406,146.7656 C24.7813,146.9063 25.0156,147.0156 25.2344,147.0156 C25.5,147.0156 25.7656,146.875 25.9375,146.6563 C26.0469,146.5 26.0781,146.3125 26.0781,145.8906 L26.0781,144.4688 C26.0781,144.0313 26.0625,143.9063 25.9688,143.75 C25.8125,143.4844 25.5313,143.3438 25.2344,143.3438 C24.9375,143.3438 24.7344,143.4375 24.5156,143.75 L24.3438,143.6719 Z " fill="#000000"/><text fill="#000000" font-family="sans-serif" font-size="14" lengthAdjust="spacing" textLength="50" x="36" y="152.8467">Objeto</text><line style="stroke:#181818;stroke-width:0.5;" x1="8" x2="88" y1="164" y2="164"/><line style="stroke:#181818;stroke-width:0.5;" x1="8" x2="88" y1="172" y2="172"/></g><!--class Sombra--><g id="elem_Sombra"><rect codeLine="6" fill="#F1F1F1" height="48" id="Sombra" rx="2.5" ry="2.5" style="stroke:#181818;stroke-width:0.5;" width="88" x="74" y="257"/><ellipse cx="89" cy="273" fill="#ADD1B2" rx="11" ry="11" style="stroke:#181818;stroke-width:1.0;"/><path d="M91.3438,268.6719 C90.4063,268.2344 89.8125,268.0938 88.9375,268.0938 C86.3125,268.0938 84.3125,270.1719 84.3125,272.8906 L84.3125,274.0156 C84.3125,276.5938 86.4219,278.4844 89.3125,278.4844 C90.5313,278.4844 91.6875,278.1875 92.4375,277.6406 C93.0156,277.2344 93.3438,276.7813 93.3438,276.3906 C93.3438,275.9375 92.9531,275.5469 92.4844,275.5469 C92.2656,275.5469 92.0625,275.625 91.875,275.8125 C91.4219,276.2969 91.4219,276.2969 91.2344,276.3906 C90.8125,276.6563 90.125,276.7813 89.3594,276.7813 C87.3125,276.7813 86.0156,275.6875 86.0156,273.9844 L86.0156,272.8906 C86.0156,271.1094 87.2656,269.7969 89,269.7969 C89.5781,269.7969 90.1875,269.9531 90.6563,270.2031 C91.1406,270.4844 91.3125,270.7031 91.4063,271.1094 C91.4688,271.5156 91.5,271.6406 91.6406,271.7656 C91.7813,271.9063 92.0156,272.0156 92.2344,272.0156 C92.5,272.0156 92.7656,271.875 92.9375,271.6563 C93.0469,271.5 93.0781,271.3125 93.0781,270.8906 L93.0781,269.4688 C93.0781,269.0313 93.0625,268.9063 92.9688,268.75 C92.8125,268.4844 92.5313,268.3438 92.2344,268.3438 C91.9375,268.3438 91.7344,268.4375 91.5156,268.75 L91.3438,268.6719 Z " fill="#000000"/><text fill="#000000" font-family="sans-serif" font-size="14" lengthAdjust="spacing" textLength="56" x="103" y="277.8467">Sombra</text><line style="stroke:#181818;stroke-width:0.5;" x1="75" x2="161" y1="289" y2="289"/><line style="stroke:#181818;stroke-width:0.5;" x1="75" x2="161" y1="297" y2="297"/></g><!--link Luz to Objeto--><g id="link_Luz_Objeto"><path codeLine="8" d="M105.4634,55.014 C98.7724,64.158 91.2557,74.891 85,85 C75.5967,100.196 71.5949,107.2889 64.6253,121.1439 " fill="none" id="Luz-to-Objeto" style="stroke:#181818;stroke-width:1.0;"/><polygon fill="#181818" points="59.2327,131.864,65.5024,128.3015,64.6253,121.1439,58.3556,124.7064,59.2327,131.864" style="stroke:#181818;stroke-width:1.0;"/><text fill="#000000" font-family="sans-serif" font-size="13" lengthAdjust="spacing" textLength="46" x="86" y="98.0669">ilumina</text></g><!--link Luz to Sombra--><g id="link_Luz_Sombra"><path codeLine="9" d="M130.523,55.223 C133.127,64.394 135.713,75.09 137,85 C145.037,146.897 134.3988,208.5364 126.2508,245.1193 " fill="none" id="Luz-to-Sombra" style="stroke:#181818;stroke-width:1.0;"/><polygon fill="#181818" points="123.642,256.8323,128.8507,251.8454,126.2508,245.1193,121.0421,250.1062,123.642,256.8323" style="stroke:#181818;stroke-width:1.0;"/><text fill="#000000" font-family="sans-serif" font-size="13" lengthAdjust="spacing" textLength="52" x="140" y="160.5669">produce</text></g><!--link Objeto to Sombra--><g id="link_Objeto_Sombra"><path codeLine="10" d="M61.1665,180.135 C73.6814,202.126 86.4618,224.583 98.9572,246.5391 " fill="none" id="Objeto-to-Sombra" style="stroke:#181818;stroke-width:1.0;"/><polygon fill="#181818" points="104.8926,256.9684,105.4013,249.7753,98.9572,246.5391,98.4484,253.7322,104.8926,256.9684" style="stroke:#181818;stroke-width:1.0;"/><text fill="#000000" font-family="sans-serif" font-size="13" lengthAdjust="spacing" textLength="28" x="89" y="223.0669">crea</text></g><!--SRC=[JOex3e0W40NxFGMTYGdIqzgQM7Y25OXYM25y6a-l1cBithoPRiyv92b4S7ZcGcvGdeHoc1BN5hU8103ZosmgLrlpUfZi6ooUreW0ZsQSzqrAPbqXU-Btrqw6w7LH1chsDoeQl040]--></g></svg>