<?xml version="1.0" encoding="windows-1252" standalone="no"?>
<svg xmlns="http://www.w3.org/2000/svg" xmlns:xlink="http://www.w3.org/1999/xlink" contentStyleType="text/css" height="426px" preserveAspectRatio="none" style="width:982px;height:426px;background:#0B58A8;" version="1.1" viewBox="0 0 982 426" width="982px" zoomAndPan="magnify"><defs/><g><rect fill="#0B58A8" height="426" style="stroke:none;stroke-width:1.0;" width="982" x="0" y="0"/><!--class Universidad--><g id="elem_Universidad"><rect codeLine="3" fill="#0B58A8" height="44" id="Universidad" rx="2.5" ry="2.5" style="stroke:#FFFFFF;stroke-width:1.0;" width="110" x="687" y="12"/><ellipse cx="700" cy="26" fill="#0B58A8" rx="9" ry="9" style="stroke:#FFFFFF;stroke-width:1.0;"/><path d="M702.3438,21.6719 C701.4063,21.2344 700.8125,21.0938 699.9375,21.0938 C697.3125,21.0938 695.3125,23.1719 695.3125,25.8906 L695.3125,27.0156 C695.3125,29.5938 697.4219,31.4844 700.3125,31.4844 C701.5313,31.4844 702.6875,31.1875 703.4375,30.6406 C704.0156,30.2344 704.3438,29.7813 704.3438,29.3906 C704.3438,28.9375 703.9531,28.5469 703.4844,28.5469 C703.2656,28.5469 703.0625,28.625 702.875,28.8125 C702.4219,29.2969 702.4219,29.2969 702.2344,29.3906 C701.8125,29.6563 701.125,29.7813 700.3594,29.7813 C698.3125,29.7813 697.0156,28.6875 697.0156,26.9844 L697.0156,25.8906 C697.0156,24.1094 698.2656,22.7969 700,22.7969 C700.5781,22.7969 701.1875,22.9531 701.6563,23.2031 C702.1406,23.4844 702.3125,23.7031 702.4063,24.1094 C702.4688,24.5156 702.5,24.6406 702.6406,24.7656 C702.7813,24.9063 703.0156,25.0156 703.2344,25.0156 C703.5,25.0156 703.7656,24.875 703.9375,24.6563 C704.0469,24.5 704.0781,24.3125 704.0781,23.8906 L704.0781,22.4688 C704.0781,22.0313 704.0625,21.9063 703.9688,21.75 C703.8125,21.4844 703.5313,21.3438 703.2344,21.3438 C702.9375,21.3438 702.7344,21.4375 702.5156,21.75 L702.3438,21.6719 Z " fill="#FFFFFF"/><text fill="#FFFFFF" font-family="Verdana" font-size="14" lengthAdjust="spacing" textLength="82" x="712" y="30.8467">Universidad</text><line style="stroke:#FFFFFF;stroke-width:1.0;" x1="688" x2="796" y1="40" y2="40"/><line style="stroke:#FFFFFF;stroke-width:1.0;" x1="688" x2="796" y1="48" y2="48"/></g><!--class Estudiante--><g id="elem_Estudiante"><rect codeLine="5" fill="#0B58A8" height="44" id="Estudiante" rx="2.5" ry="2.5" style="stroke:#FFFFFF;stroke-width:1.0;" width="105" x="151.5" y="133"/><ellipse cx="164.5" cy="147" fill="#0B58A8" rx="9" ry="9" style="stroke:#FFFFFF;stroke-width:1.0;"/><path d="M166.8438,142.6719 C165.9063,142.2344 165.3125,142.0938 164.4375,142.0938 C161.8125,142.0938 159.8125,144.1719 159.8125,146.8906 L159.8125,148.0156 C159.8125,150.5938 161.9219,152.4844 164.8125,152.4844 C166.0313,152.4844 167.1875,152.1875 167.9375,151.6406 C168.5156,151.2344 168.8438,150.7813 168.8438,150.3906 C168.8438,149.9375 168.4531,149.5469 167.9844,149.5469 C167.7656,149.5469 167.5625,149.625 167.375,149.8125 C166.9219,150.2969 166.9219,150.2969 166.7344,150.3906 C166.3125,150.6563 165.625,150.7813 164.8594,150.7813 C162.8125,150.7813 161.5156,149.6875 161.5156,147.9844 L161.5156,146.8906 C161.5156,145.1094 162.7656,143.7969 164.5,143.7969 C165.0781,143.7969 165.6875,143.9531 166.1563,144.2031 C166.6406,144.4844 166.8125,144.7031 166.9063,145.1094 C166.9688,145.5156 167,145.6406 167.1406,145.7656 C167.2813,145.9063 167.5156,146.0156 167.7344,146.0156 C168,146.0156 168.2656,145.875 168.4375,145.6563 C168.5469,145.5 168.5781,145.3125 168.5781,144.8906 L168.5781,143.4688 C168.5781,143.0313 168.5625,142.9063 168.4688,142.75 C168.3125,142.4844 168.0313,142.3438 167.7344,142.3438 C167.4375,142.3438 167.2344,142.4375 167.0156,142.75 L166.8438,142.6719 Z " fill="#FFFFFF"/><text fill="#FFFFFF" font-family="Verdana" font-size="14" lengthAdjust="spacing" textLength="77" x="176.5" y="151.8467">Estudiante</text><line style="stroke:#FFFFFF;stroke-width:1.0;" x1="152.5" x2="255.5" y1="161" y2="161"/><line style="stroke:#FFFFFF;stroke-width:1.0;" x1="152.5" x2="255.5" y1="169" y2="169"/></g><!--class Becario--><g id="elem_Becario"><rect codeLine="7" fill="#0B58A8" height="44" id="Becario" rx="2.5" ry="2.5" style="stroke:#FFFFFF;stroke-width:1.0;" width="82" x="12" y="254"/><ellipse cx="25" cy="268" fill="#0B58A8" rx="9" ry="9" style="stroke:#FFFFFF;stroke-width:1.0;"/><path d="M27.3438,263.6719 C26.4063,263.2344 25.8125,263.0938 24.9375,263.0938 C22.3125,263.0938 20.3125,265.1719 20.3125,267.8906 L20.3125,269.0156 C20.3125,271.5938 22.4219,273.4844 25.3125,273.4844 C26.5313,273.4844 27.6875,273.1875 28.4375,272.6406 C29.0156,272.2344 29.3438,271.7813 29.3438,271.3906 C29.3438,270.9375 28.9531,270.5469 28.4844,270.5469 C28.2656,270.5469 28.0625,270.625 27.875,270.8125 C27.4219,271.2969 27.4219,271.2969 27.2344,271.3906 C26.8125,271.6563 26.125,271.7813 25.3594,271.7813 C23.3125,271.7813 22.0156,270.6875 22.0156,268.9844 L22.0156,267.8906 C22.0156,266.1094 23.2656,264.7969 25,264.7969 C25.5781,264.7969 26.1875,264.9531 26.6563,265.2031 C27.1406,265.4844 27.3125,265.7031 27.4063,266.1094 C27.4688,266.5156 27.5,266.6406 27.6406,266.7656 C27.7813,266.9063 28.0156,267.0156 28.2344,267.0156 C28.5,267.0156 28.7656,266.875 28.9375,266.6563 C29.0469,266.5 29.0781,266.3125 29.0781,265.8906 L29.0781,264.4688 C29.0781,264.0313 29.0625,263.9063 28.9688,263.75 C28.8125,263.4844 28.5313,263.3438 28.2344,263.3438 C27.9375,263.3438 27.7344,263.4375 27.5156,263.75 L27.3438,263.6719 Z " fill="#FFFFFF"/><text fill="#FFFFFF" font-family="Verdana" font-size="14" lengthAdjust="spacing" textLength="54" x="37" y="272.8467">Becario</text><line style="stroke:#FFFFFF;stroke-width:1.0;" x1="13" x2="93" y1="282" y2="282"/><line style="stroke:#FFFFFF;stroke-width:1.0;" x1="13" x2="93" y1="290" y2="290"/></g><!--class NoBecario--><g id="elem_NoBecario"><rect codeLine="9" fill="#0B58A8" height="44" id="NoBecario" rx="2.5" ry="2.5" style="stroke:#FFFFFF;stroke-width:1.0;" width="101" x="129.5" y="254"/><ellipse cx="142.5" cy="268" fill="#0B58A8" rx="9" ry="9" style="stroke:#FFFFFF;stroke-width:1.0;"/><path d="M144.8438,263.6719 C143.9063,263.2344 143.3125,263.0938 142.4375,263.0938 C139.8125,263.0938 137.8125,265.1719 137.8125,267.8906 L137.8125,269.0156 C137.8125,271.5938 139.9219,273.4844 142.8125,273.4844 C144.0313,273.4844 145.1875,273.1875 145.9375,272.6406 C146.5156,272.2344 146.8438,271.7813 146.8438,271.3906 C146.8438,270.9375 146.4531,270.5469 145.9844,270.5469 C145.7656,270.5469 145.5625,270.625 145.375,270.8125 C144.9219,271.2969 144.9219,271.2969 144.7344,271.3906 C144.3125,271.6563 143.625,271.7813 142.8594,271.7813 C140.8125,271.7813 139.5156,270.6875 139.5156,268.9844 L139.5156,267.8906 C139.5156,266.1094 140.7656,264.7969 142.5,264.7969 C143.0781,264.7969 143.6875,264.9531 144.1563,265.2031 C144.6406,265.4844 144.8125,265.7031 144.9063,266.1094 C144.9688,266.5156 145,266.6406 145.1406,266.7656 C145.2813,266.9063 145.5156,267.0156 145.7344,267.0156 C146,267.0156 146.2656,266.875 146.4375,266.6563 C146.5469,266.5 146.5781,266.3125 146.5781,265.8906 L146.5781,264.4688 C146.5781,264.0313 146.5625,263.9063 146.4688,263.75 C146.3125,263.4844 146.0313,263.3438 145.7344,263.3438 C145.4375,263.3438 145.2344,263.4375 145.0156,263.75 L144.8438,263.6719 Z " fill="#FFFFFF"/><text fill="#FFFFFF" font-family="Verdana" font-size="14" lengthAdjust="spacing" textLength="73" x="154.5" y="272.8467">NoBecario</text><line style="stroke:#FFFFFF;stroke-width:1.0;" x1="130.5" x2="229.5" y1="282" y2="282"/><line style="stroke:#FFFFFF;stroke-width:1.0;" x1="130.5" x2="229.5" y1="290" y2="290"/></g><!--class Profesor--><g id="elem_Profesor"><rect codeLine="11" fill="#0B58A8" height="44" id="Profesor" rx="2.5" ry="2.5" style="stroke:#FFFFFF;stroke-width:1.0;" width="89" x="310.5" y="12"/><ellipse cx="323.5" cy="26" fill="#0B58A8" rx="9" ry="9" style="stroke:#FFFFFF;stroke-width:1.0;"/><path d="M325.8438,21.6719 C324.9063,21.2344 324.3125,21.0938 323.4375,21.0938 C320.8125,21.0938 318.8125,23.1719 318.8125,25.8906 L318.8125,27.0156 C318.8125,29.5938 320.9219,31.4844 323.8125,31.4844 C325.0313,31.4844 326.1875,31.1875 326.9375,30.6406 C327.5156,30.2344 327.8438,29.7813 327.8438,29.3906 C327.8438,28.9375 327.4531,28.5469 326.9844,28.5469 C326.7656,28.5469 326.5625,28.625 326.375,28.8125 C325.9219,29.2969 325.9219,29.2969 325.7344,29.3906 C325.3125,29.6563 324.625,29.7813 323.8594,29.7813 C321.8125,29.7813 320.5156,28.6875 320.5156,26.9844 L320.5156,25.8906 C320.5156,24.1094 321.7656,22.7969 323.5,22.7969 C324.0781,22.7969 324.6875,22.9531 325.1563,23.2031 C325.6406,23.4844 325.8125,23.7031 325.9063,24.1094 C325.9688,24.5156 326,24.6406 326.1406,24.7656 C326.2813,24.9063 326.5156,25.0156 326.7344,25.0156 C327,25.0156 327.2656,24.875 327.4375,24.6563 C327.5469,24.5 327.5781,24.3125 327.5781,23.8906 L327.5781,22.4688 C327.5781,22.0313 327.5625,21.9063 327.4688,21.75 C327.3125,21.4844 327.0313,21.3438 326.7344,21.3438 C326.4375,21.3438 326.2344,21.4375 326.0156,21.75 L325.8438,21.6719 Z " fill="#FFFFFF"/><text fill="#FFFFFF" font-family="Verdana" font-size="14" lengthAdjust="spacing" textLength="61" x="335.5" y="30.8467">Profesor</text><line style="stroke:#FFFFFF;stroke-width:1.0;" x1="311.5" x2="398.5" y1="40" y2="40"/><line style="stroke:#FFFFFF;stroke-width:1.0;" x1="311.5" x2="398.5" y1="48" y2="48"/></g><!--class Curso--><g id="elem_Curso"><rect codeLine="13" fill="#0B58A8" height="44" id="Curso" rx="2.5" ry="2.5" style="stroke:#FFFFFF;stroke-width:1.0;" width="68" x="321" y="254"/><ellipse cx="334" cy="268" fill="#0B58A8" rx="9" ry="9" style="stroke:#FFFFFF;stroke-width:1.0;"/><path d="M336.3438,263.6719 C335.4063,263.2344 334.8125,263.0938 333.9375,263.0938 C331.3125,263.0938 329.3125,265.1719 329.3125,267.8906 L329.3125,269.0156 C329.3125,271.5938 331.4219,273.4844 334.3125,273.4844 C335.5313,273.4844 336.6875,273.1875 337.4375,272.6406 C338.0156,272.2344 338.3438,271.7813 338.3438,271.3906 C338.3438,270.9375 337.9531,270.5469 337.4844,270.5469 C337.2656,270.5469 337.0625,270.625 336.875,270.8125 C336.4219,271.2969 336.4219,271.2969 336.2344,271.3906 C335.8125,271.6563 335.125,271.7813 334.3594,271.7813 C332.3125,271.7813 331.0156,270.6875 331.0156,268.9844 L331.0156,267.8906 C331.0156,266.1094 332.2656,264.7969 334,264.7969 C334.5781,264.7969 335.1875,264.9531 335.6563,265.2031 C336.1406,265.4844 336.3125,265.7031 336.4063,266.1094 C336.4688,266.5156 336.5,266.6406 336.6406,266.7656 C336.7813,266.9063 337.0156,267.0156 337.2344,267.0156 C337.5,267.0156 337.7656,266.875 337.9375,266.6563 C338.0469,266.5 338.0781,266.3125 338.0781,265.8906 L338.0781,264.4688 C338.0781,264.0313 338.0625,263.9063 337.9688,263.75 C337.8125,263.4844 337.5313,263.3438 337.2344,263.3438 C336.9375,263.3438 336.7344,263.4375 336.5156,263.75 L336.3438,263.6719 Z " fill="#FFFFFF"/><text fill="#FFFFFF" font-family="Verdana" font-size="14" lengthAdjust="spacing" textLength="40" x="346" y="272.8467">Curso</text><line style="stroke:#FFFFFF;stroke-width:1.0;" x1="322" x2="388" y1="282" y2="282"/><line style="stroke:#FFFFFF;stroke-width:1.0;" x1="322" x2="388" y1="290" y2="290"/></g><!--class Departamento--><g id="elem_Departamento"><rect codeLine="15" fill="#0B58A8" height="44" id="Departamento" rx="2.5" ry="2.5" style="stroke:#FFFFFF;stroke-width:1.0;" width="135" x="563.5" y="375"/><ellipse cx="576.5" cy="389" fill="#0B58A8" rx="9" ry="9" style="stroke:#FFFFFF;stroke-width:1.0;"/><path d="M578.8438,384.6719 C577.9063,384.2344 577.3125,384.0938 576.4375,384.0938 C573.8125,384.0938 571.8125,386.1719 571.8125,388.8906 L571.8125,390.0156 C571.8125,392.5938 573.9219,394.4844 576.8125,394.4844 C578.0313,394.4844 579.1875,394.1875 579.9375,393.6406 C580.5156,393.2344 580.8438,392.7813 580.8438,392.3906 C580.8438,391.9375 580.4531,391.5469 579.9844,391.5469 C579.7656,391.5469 579.5625,391.625 579.375,391.8125 C578.9219,392.2969 578.9219,392.2969 578.7344,392.3906 C578.3125,392.6563 577.625,392.7813 576.8594,392.7813 C574.8125,392.7813 573.5156,391.6875 573.5156,389.9844 L573.5156,388.8906 C573.5156,387.1094 574.7656,385.7969 576.5,385.7969 C577.0781,385.7969 577.6875,385.9531 578.1563,386.2031 C578.6406,386.4844 578.8125,386.7031 578.9063,387.1094 C578.9688,387.5156 579,387.6406 579.1406,387.7656 C579.2813,387.9063 579.5156,388.0156 579.7344,388.0156 C580,388.0156 580.2656,387.875 580.4375,387.6563 C580.5469,387.5 580.5781,387.3125 580.5781,386.8906 L580.5781,385.4688 C580.5781,385.0313 580.5625,384.9063 580.4688,384.75 C580.3125,384.4844 580.0313,384.3438 579.7344,384.3438 C579.4375,384.3438 579.2344,384.4375 579.0156,384.75 L578.8438,384.6719 Z " fill="#FFFFFF"/><text fill="#FFFFFF" font-family="Verdana" font-size="14" lengthAdjust="spacing" textLength="107" x="588.5" y="393.8467">Departamento</text><line style="stroke:#FFFFFF;stroke-width:1.0;" x1="564.5" x2="697.5" y1="403" y2="403"/><line style="stroke:#FFFFFF;stroke-width:1.0;" x1="564.5" x2="697.5" y1="411" y2="411"/></g><!--class Investigador--><g id="elem_Investigador"><rect codeLine="17" fill="#0B58A8" height="44" id="Investigador" rx="2.5" ry="2.5" style="stroke:#FFFFFF;stroke-width:1.0;" width="117" x="495.5" y="12"/><ellipse cx="508.5" cy="26" fill="#0B58A8" rx="9" ry="9" style="stroke:#FFFFFF;stroke-width:1.0;"/><path d="M510.8438,21.6719 C509.9063,21.2344 509.3125,21.0938 508.4375,21.0938 C505.8125,21.0938 503.8125,23.1719 503.8125,25.8906 L503.8125,27.0156 C503.8125,29.5938 505.9219,31.4844 508.8125,31.4844 C510.0313,31.4844 511.1875,31.1875 511.9375,30.6406 C512.5156,30.2344 512.8438,29.7813 512.8438,29.3906 C512.8438,28.9375 512.4531,28.5469 511.9844,28.5469 C511.7656,28.5469 511.5625,28.625 511.375,28.8125 C510.9219,29.2969 510.9219,29.2969 510.7344,29.3906 C510.3125,29.6563 509.625,29.7813 508.8594,29.7813 C506.8125,29.7813 505.5156,28.6875 505.5156,26.9844 L505.5156,25.8906 C505.5156,24.1094 506.7656,22.7969 508.5,22.7969 C509.0781,22.7969 509.6875,22.9531 510.1563,23.2031 C510.6406,23.4844 510.8125,23.7031 510.9063,24.1094 C510.9688,24.5156 511,24.6406 511.1406,24.7656 C511.2813,24.9063 511.5156,25.0156 511.7344,25.0156 C512,25.0156 512.2656,24.875 512.4375,24.6563 C512.5469,24.5 512.5781,24.3125 512.5781,23.8906 L512.5781,22.4688 C512.5781,22.0313 512.5625,21.9063 512.4688,21.75 C512.3125,21.4844 512.0313,21.3438 511.7344,21.3438 C511.4375,21.3438 511.2344,21.4375 511.0156,21.75 L510.8438,21.6719 Z " fill="#FFFFFF"/><text fill="#FFFFFF" font-family="Verdana" font-size="14" lengthAdjust="spacing" textLength="89" x="520.5" y="30.8467">Investigador</text><line style="stroke:#FFFFFF;stroke-width:1.0;" x1="496.5" x2="611.5" y1="40" y2="40"/><line style="stroke:#FFFFFF;stroke-width:1.0;" x1="496.5" x2="611.5" y1="48" y2="48"/></g><!--class Administrativos--><g id="elem_Administrativos"><rect codeLine="19" fill="#0B58A8" height="44" id="Administrativos" rx="2.5" ry="2.5" style="stroke:#FFFFFF;stroke-width:1.0;" width="141" x="832.5" y="12"/><ellipse cx="845.5" cy="26" fill="#0B58A8" rx="9" ry="9" style="stroke:#FFFFFF;stroke-width:1.0;"/><path d="M847.8438,21.6719 C846.9063,21.2344 846.3125,21.0938 845.4375,21.0938 C842.8125,21.0938 840.8125,23.1719 840.8125,25.8906 L840.8125,27.0156 C840.8125,29.5938 842.9219,31.4844 845.8125,31.4844 C847.0313,31.4844 848.1875,31.1875 848.9375,30.6406 C849.5156,30.2344 849.8438,29.7813 849.8438,29.3906 C849.8438,28.9375 849.4531,28.5469 848.9844,28.5469 C848.7656,28.5469 848.5625,28.625 848.375,28.8125 C847.9219,29.2969 847.9219,29.2969 847.7344,29.3906 C847.3125,29.6563 846.625,29.7813 845.8594,29.7813 C843.8125,29.7813 842.5156,28.6875 842.5156,26.9844 L842.5156,25.8906 C842.5156,24.1094 843.7656,22.7969 845.5,22.7969 C846.0781,22.7969 846.6875,22.9531 847.1563,23.2031 C847.6406,23.4844 847.8125,23.7031 847.9063,24.1094 C847.9688,24.5156 848,24.6406 848.1406,24.7656 C848.2813,24.9063 848.5156,25.0156 848.7344,25.0156 C849,25.0156 849.2656,24.875 849.4375,24.6563 C849.5469,24.5 849.5781,24.3125 849.5781,23.8906 L849.5781,22.4688 C849.5781,22.0313 849.5625,21.9063 849.4688,21.75 C849.3125,21.4844 849.0313,21.3438 848.7344,21.3438 C848.4375,21.3438 848.2344,21.4375 848.0156,21.75 L847.8438,21.6719 Z " fill="#FFFFFF"/><text fill="#FFFFFF" font-family="Verdana" font-size="14" lengthAdjust="spacing" textLength="113" x="857.5" y="30.8467">Administrativos</text><line style="stroke:#FFFFFF;stroke-width:1.0;" x1="833.5" x2="972.5" y1="40" y2="40"/><line style="stroke:#FFFFFF;stroke-width:1.0;" x1="833.5" x2="972.5" y1="48" y2="48"/></g><!--class PAS--><g id="elem_PAS"><rect codeLine="21" fill="#0B58A8" height="44" id="PAS" rx="2.5" ry="2.5" style="stroke:#FFFFFF;stroke-width:1.0;" width="56" x="809" y="133"/><ellipse cx="822" cy="147" fill="#0B58A8" rx="9" ry="9" style="stroke:#FFFFFF;stroke-width:1.0;"/><path d="M824.3438,142.6719 C823.4063,142.2344 822.8125,142.0938 821.9375,142.0938 C819.3125,142.0938 817.3125,144.1719 817.3125,146.8906 L817.3125,148.0156 C817.3125,150.5938 819.4219,152.4844 822.3125,152.4844 C823.5313,152.4844 824.6875,152.1875 825.4375,151.6406 C826.0156,151.2344 826.3438,150.7813 826.3438,150.3906 C826.3438,149.9375 825.9531,149.5469 825.4844,149.5469 C825.2656,149.5469 825.0625,149.625 824.875,149.8125 C824.4219,150.2969 824.4219,150.2969 824.2344,150.3906 C823.8125,150.6563 823.125,150.7813 822.3594,150.7813 C820.3125,150.7813 819.0156,149.6875 819.0156,147.9844 L819.0156,146.8906 C819.0156,145.1094 820.2656,143.7969 822,143.7969 C822.5781,143.7969 823.1875,143.9531 823.6563,144.2031 C824.1406,144.4844 824.3125,144.7031 824.4063,145.1094 C824.4688,145.5156 824.5,145.6406 824.6406,145.7656 C824.7813,145.9063 825.0156,146.0156 825.2344,146.0156 C825.5,146.0156 825.7656,145.875 825.9375,145.6563 C826.0469,145.5 826.0781,145.3125 826.0781,144.8906 L826.0781,143.4688 C826.0781,143.0313 826.0625,142.9063 825.9688,142.75 C825.8125,142.4844 825.5313,142.3438 825.2344,142.3438 C824.9375,142.3438 824.7344,142.4375 824.5156,142.75 L824.3438,142.6719 Z " fill="#FFFFFF"/><text fill="#FFFFFF" font-family="Verdana" font-size="14" lengthAdjust="spacing" textLength="28" x="834" y="151.8467">PAS</text><line style="stroke:#FFFFFF;stroke-width:1.0;" x1="810" x2="864" y1="161" y2="161"/><line style="stroke:#FFFFFF;stroke-width:1.0;" x1="810" x2="864" y1="169" y2="169"/></g><!--class PDI--><g id="elem_PDI"><rect codeLine="23" fill="#0B58A8" height="44" id="PDI" rx="2.5" ry="2.5" style="stroke:#FFFFFF;stroke-width:1.0;" width="52" x="528" y="133"/><ellipse cx="541" cy="147" fill="#0B58A8" rx="9" ry="9" style="stroke:#FFFFFF;stroke-width:1.0;"/><path d="M543.3438,142.6719 C542.4063,142.2344 541.8125,142.0938 540.9375,142.0938 C538.3125,142.0938 536.3125,144.1719 536.3125,146.8906 L536.3125,148.0156 C536.3125,150.5938 538.4219,152.4844 541.3125,152.4844 C542.5313,152.4844 543.6875,152.1875 544.4375,151.6406 C545.0156,151.2344 545.3438,150.7813 545.3438,150.3906 C545.3438,149.9375 544.9531,149.5469 544.4844,149.5469 C544.2656,149.5469 544.0625,149.625 543.875,149.8125 C543.4219,150.2969 543.4219,150.2969 543.2344,150.3906 C542.8125,150.6563 542.125,150.7813 541.3594,150.7813 C539.3125,150.7813 538.0156,149.6875 538.0156,147.9844 L538.0156,146.8906 C538.0156,145.1094 539.2656,143.7969 541,143.7969 C541.5781,143.7969 542.1875,143.9531 542.6563,144.2031 C543.1406,144.4844 543.3125,144.7031 543.4063,145.1094 C543.4688,145.5156 543.5,145.6406 543.6406,145.7656 C543.7813,145.9063 544.0156,146.0156 544.2344,146.0156 C544.5,146.0156 544.7656,145.875 544.9375,145.6563 C545.0469,145.5 545.0781,145.3125 545.0781,144.8906 L545.0781,143.4688 C545.0781,143.0313 545.0625,142.9063 544.9688,142.75 C544.8125,142.4844 544.5313,142.3438 544.2344,142.3438 C543.9375,142.3438 543.7344,142.4375 543.5156,142.75 L543.3438,142.6719 Z " fill="#FFFFFF"/><text fill="#FFFFFF" font-family="Verdana" font-size="14" lengthAdjust="spacing" textLength="24" x="553" y="151.8467">PDI</text><line style="stroke:#FFFFFF;stroke-width:1.0;" x1="529" x2="579" y1="161" y2="161"/><line style="stroke:#FFFFFF;stroke-width:1.0;" x1="529" x2="579" y1="169" y2="169"/></g><!--link Universidad to PDI--><g id="link_Universidad_PDI"><path codeLine="25" d="M718.157,56.041 C701.425,70.248 678.166,88.906 656,103 C631.44,118.616 601.454,133.114 580.371,142.629 " fill="none" id="Universidad-PDI" style="stroke:#FFFFFF;stroke-width:1.0;"/><text fill="#FFFFFF" font-family="Verdana" font-size="13" lengthAdjust="spacing" textLength="35" x="680" y="99.0669">Tiene</text></g><!--link Universidad to PAS--><g id="link_Universidad_PAS"><path codeLine="26" d="M758.765,56.001 C776.024,77.619 802.769,111.121 820.083,132.809 " fill="none" id="Universidad-PAS" style="stroke:#FFFFFF;stroke-width:1.0;"/><text fill="#FFFFFF" font-family="Verdana" font-size="13" lengthAdjust="spacing" textLength="35" x="797" y="99.0669">Tiene</text></g><!--link Universidad to Departamento--><g id="link_Universidad_Departamento"><path codeLine="27" d="M736.669,56.208 C733.218,69.659 728.536,87.404 724,103 C694.189,205.49 654.195,326.6725 638.124,374.7854 " fill="none" id="Universidad-Departamento" style="stroke:#FFFFFF;stroke-width:1.0;"/><text fill="#FFFFFF" font-family="Verdana" font-size="13" lengthAdjust="spacing" textLength="57" x="693" y="220.0669">Contiene</text></g><!--link Estudiante to Curso--><g id="link_Estudiante_Curso"><path codeLine="28" d="M208.87,177.115 C213.245,191.909 221.029,211.242 234,224 C257.892,247.498 294.242,260.826 320.866,267.916 " fill="none" id="Estudiante-Curso" style="stroke:#FFFFFF;stroke-width:1.0;"/><text fill="#FFFFFF" font-family="Verdana" font-size="13" lengthAdjust="spacing" textLength="93" x="235" y="220.0669">Matriculado en</text></g><!--link Estudiante to Becario--><g id="link_Estudiante_Becario"><path codeLine="29" d="M177.352,177.001 C149.92,198.619 107.4097,232.121 79.8897,253.809 " fill="none" id="Estudiante-Becario" style="stroke:#FFFFFF;stroke-width:1.0;"/><text fill="#FFFFFF" font-family="Verdana" font-size="13" lengthAdjust="spacing" textLength="15" x="139" y="220.0669">Es</text></g><!--link Estudiante to NoBecario--><g id="link_Estudiante_NoBecario"><path codeLine="30" d="M189.69,177.394 C184.629,186.178 179.56,196.694 177,207 C173.183,222.368 174.184,240.279 176.005,253.86 " fill="none" id="Estudiante-NoBecario" style="stroke:#FFFFFF;stroke-width:1.0;"/><text fill="#FFFFFF" font-family="Verdana" font-size="13" lengthAdjust="spacing" textLength="15" x="178" y="220.0669">Es</text></g><!--link Profesor to Curso--><g id="link_Profesor_Curso"><path codeLine="31" d="M355,56.298 C355,101.843 355,208.248 355,253.749 " fill="none" id="Profesor-Curso" style="stroke:#FFFFFF;stroke-width:1.0;"/><text fill="#FFFFFF" font-family="Verdana" font-size="13" lengthAdjust="spacing" textLength="50" x="356" y="159.5669">Imparte</text></g><!--link Profesor to Estudiante--><g id="link_Profesor_Estudiante"><path codeLine="32" d="M318.532,56.151 C304.505,64.82 288.602,75.319 275,86 C256.609,100.441 237.569,118.9 223.841,132.941 " fill="none" id="Profesor-Estudiante" style="stroke:#FFFFFF;stroke-width:1.0;"/><text fill="#FFFFFF" font-family="Verdana" font-size="13" lengthAdjust="spacing" textLength="52" x="276" y="99.0669">Asesora</text></g><!--link Curso to Departamento--><g id="link_Curso_Departamento"><path codeLine="33" d="M389.12,291.711 C437.58,312.605 526.605,350.9892 582.084,374.9094 " fill="none" id="Curso-Departamento" style="stroke:#FFFFFF;stroke-width:1.0;"/><text fill="#FFFFFF" font-family="Verdana" font-size="13" lengthAdjust="spacing" textLength="71" x="511" y="341.0669">Asignado a</text></g><!--link Profesor to PDI--><g id="link_Profesor_PDI"><path codeLine="34" d="M378.996,56.277 C395.868,70.589 419.382,89.277 442,103 C469.947,119.957 504.494,134.862 527.77,144.111 " fill="none" id="Profesor-PDI" style="stroke:#FFFFFF;stroke-width:1.0;"/><text fill="#FFFFFF" font-family="Verdana" font-size="13" lengthAdjust="spacing" textLength="99" x="443" y="99.0669">Forma parte de</text></g><!--link Investigador to PDI--><g id="link_Investigador_PDI"><path codeLine="35" d="M552.268,56.129 C551.366,69.55 550.538,87.29 551,103 C551.287,112.752 551.881,123.54 552.465,132.672 " fill="none" id="Investigador-PDI" style="stroke:#FFFFFF;stroke-width:1.0;"/><text fill="#FFFFFF" font-family="Verdana" font-size="13" lengthAdjust="spacing" textLength="99" x="552" y="99.0669">Forma parte de</text></g><!--link Administrativos to PAS--><g id="link_Administrativos_PAS"><path codeLine="36" d="M891.352,56.001 C879.362,77.619 860.782,111.121 848.753,132.809 " fill="none" id="Administrativos-PAS" style="stroke:#FFFFFF;stroke-width:1.0;"/><text fill="#FFFFFF" font-family="Verdana" font-size="13" lengthAdjust="spacing" textLength="99" x="875" y="99.0669">Forma parte de</text></g><!--SRC=[TL4xRiCm3Drz2lO0kO0tDqa13oq2f3a0OR4fWKWgHDfBaRjNjWENif6HxqCzFhteDta2z7p5gkfkA0ANm0CbOOSEVglx0psAzeunA1dmbJfC7F-1ZxY1JYb-aSHaRFi-IJJpWNumANeAQk4s32IQaxd2tJZFWKKJAWzH37DgpdOwjDDaxzdj9hY6JwP06ohxdr15n1hsCUWaCxLarNnO3U-eYRl-bfC3XPNeqL2M7ML5BVNDv5ATMTtwCGWLd5bIGoCZZDLis4PlXAzX38R5ZhcMjvWymlG2EAgA7tWcMl_7KcIf-mC0]--></g></svg>